<?xml version="1.0" encoding="UTF-8"?>
<svg id="Camada_2" data-name="Camada 2" xmlns="http://www.w3.org/2000/svg" viewBox="0 0 931.34 268.4">
  <defs>
    <style>
      .cls-1 {
        fill: #063;
        stroke-width: 0px;
      }
    </style>
  </defs>
  <g id="Camada_1-2" data-name="Camada 1">
    <g>
      <g>
        <path class="cls-1" d="m414.84,116.3c6.6-9.1,13-18.3,19.4-27.5.7-1,2-1.9,1.2-3.5h-54.2c-1.4,2.8-2.5,5.4-3.8,7.8-4.7,8.7-9.3,17.5-14.1,26.1-6.1,10.9-12.3,21.8-18.7,32.6-5.3,9-12.1,16.9-20.3,23.5-8.2,6.7-17.3,12.1-27.5,15.2-3.4,1-6.8,1.3-10.3.8-3.7-.5-6.5-2.4-8.4-5.5-.8-1.4-1.4-3-2-4.5-1.3-3.8-1.1-7.8-1.1-11.8.1-13.5.2-27.1-.7-40.6-.2-3.3-.5-6.6-1.2-9.8-2.9-14-10.6-24.3-23.6-30.4-2.8-1.3-5.8-2.5-8.8-3.3-18.9-5.2-37.8-5.2-56.6.2-3.6,1.1-7.2,2.5-10.6,4.1-18.1,8.6-27.6,23.3-30.1,42.9-.8,5.9-.7,11.8-.7,17.8v77.7c0,1.8.1,3.6.2,5.5,1.2.2,2.2.5,3.1.5h42.6c.9,0,1.9-.3,3-.5.1-2,.2-3.8.2-5.6-.1-25.9-.1-51.8-.2-77.7,0-4.3.1-8.6.1-12.9,0-3.5.7-6.9,2.4-10,3.5-6.3,8.9-9,16-8.7,6.8.3,11.4,3.8,14.1,9.9.7,1.6,1.2,3.4,1.4,5.2.3,2.3.5,4.6.5,6.9.1,13.4.1,26.7.2,40.1.1,9.7.1,19.5.3,29.2.1,3,.4,5.9.9,8.8,1.7,9.6,7.2,15.2,16.8,17.1,2.1.4,4.2.8,6.4.7,5.4-.1,10.9-.3,16.3-.8,15.4-1.4,29.6-6.1,42.4-14.9l4.5-3c25.5-16.4,47.8-36.2,67.4-59.3,12-13.5,23-27.8,33.5-42.3Z"/>
        <path class="cls-1" d="m48.34,23.8c-5.5-.1-10.8,0-16-.1-5.4,0-10.9-.1-16.3,0-5.2.1-10.5-.4-15.9.4,0,2.2-.1,4.2-.1,6.1v197c0,1.3-.1,2.6,0,4,.1.9.3,1.9.5,2.7,6.8.6,43.9.4,48.2-.3V27c-.1-1-.3-1.9-.4-3.2Z"/>
        <path class="cls-1" d="m119.64,85.1h-47.3c-.6,4.6-1,136-.5,146.2,0,.8.3,1.6.4,2.3.5.2.8.4,1.1.5.8.1,1.6.1,2.5.1,14.3,0,28.7-.1,43-.2.2,0,.3,0,.5-.1.1-.1.2-.2.7-.7,0-1.5.1-3.5.1-5.4V88.2c-.1-.9-.3-1.9-.5-3.1Z"/>
        <path class="cls-1" d="m307.64,168.2c13.1-8.8,23.6-20,31.9-33.4,4.1-6.6,6.1-13.7,6.1-21.6-.1-24.1,0-48.2,0-72.3,0-4.3,0-8.6-.1-12.9,0-1.4.2-3-1.1-4.1-5.9-.6-43.8-.4-47.6.2-.1.7-.3,1.5-.4,2.3-.5,12.1-.2,142.9.5,147.5,4-1.6,7.4-3.5,10.7-5.7Z"/>
        <path class="cls-1" d="m455.34,231.2c-16.2-25.5-32.4-50.9-48.6-76.4-.1-.1-.2-.3-.4-.3-.1-.1-.3,0-.5,0-3,2.6-28.9,32.9-31.4,36.7,2.6,4.9,25.3,39.7,27.8,42.6,8.3.6,50,.4,53.7-.3.1-.2.2-.3.2-.5-.2-.6-.4-1.2-.8-1.8Z"/>
        <path class="cls-1" d="m97.54,17.4c-14.4-.7-26.9,10.5-27.5,25.1-.7,14.4,10.6,26.9,25.1,27.5,14.5.7,27-10.6,27.5-25.1.7-14.4-10.6-26.9-25.1-27.5Zm-3.8,18.6c1.7-1.9,3.5-3.7,5.4-5.4,2.2-2,4.9-2.4,7.6-1.2,2.7,1.3,4.4,3.5,4.5,6.7.1,2-.7,3.7-2.1,5.1-2.2,2.2-4.4,4.4-6.6,6.6-3.8,3.6-9.6,2.5-11.7-2.3-.2-.6-.2-1.7.2-2,1-.7,1.4.3,1.8,1,1.9,3.6,5.6,4.2,8.5,1.3l6-6c2.2-2.3,2.2-5.1.1-7.2-2.1-2.1-5-2.1-7.2.1-1.6,1.6-3.2,3.3-4.9,4.8-.4.4-1.2.2-1.8.3,0-.6-.1-1.4.2-1.8Zm-3.9-9.1c.3-.1,1,.3,1.2.6.5,1.1.7,2.3,1.2,3.7-.2.3-.5.8-.8.9-.4.1-1.2-.2-1.3-.5-.5-1.1-.8-2.3-1-3.5-.3-.3.3-1,.7-1.2Zm-6.7,4.1c.1-.3.8-.7.9-.6,1.3,1,2.6,2,3.9,3.1-.5.6-.7,1.1-.9,1.2-.4.1-.9.1-1.2-.1-.9-.7-1.7-1.5-2.5-2.4-.3-.3-.4-.9-.2-1.2Zm-2.3,5.5c1.1.1,2.3.4,3.4.8.3.1.7.9.6,1.3s-.7.7-1,.9c-1.4-.4-2.4-.5-3.4-.9-.4-.2-.6-.9-.9-1.3.4-.3.9-.8,1.3-.8Zm16.4,16.5c-1.7,1.7-3.2,3.5-5.1,5-1.4,1.1-3.1,1.7-4,2.2-4.1-.3-6.3-1.9-7.7-4.7-1.3-2.7-.8-5.4,1.3-7.5,2.3-2.4,4.6-4.8,7.1-7.1,3.8-3.5,9.7-2.1,11.6,2.8.2.5-.2,1.2-.3,1.8-.6-.3-1.4-.5-1.6-.9-1.6-2.9-4-4-6.5-3.1-.4.2-.9.3-1.2.6-2.6,2.5-5.2,5-7.6,7.6-1.8,2-1.3,4.8.8,6.7,2,1.8,4.7,1.9,6.6,0,1.7-1.6,3.4-3.4,5.1-5,.6-.6,1.2-1.3,2.1-.4.7.8,0,1.4-.6,2Zm5.7,7.4c-.4.1-1.1-.2-1.2-.5-.5-1.2-.9-2.4-1.1-3.6-.1-.3.4-1,.8-1.1.3-.1,1.1.2,1.2.4.5,1.2.8,2.4,1.2,3.8-.3.4-.5.9-.9,1Zm5.4-3.6c-1.1-.9-2.2-1.8-3.1-2.9-.2-.2.3-1.1.5-1.6.2,0,.5-.1.7-.1,1.1,1.2,2.2,2.4,3.2,3.6-.4.4-1.2,1.1-1.3,1Zm3.7-5.8c-1.4-.3-2.5-.5-3.6-.9-.4-.1-.8-.9-.7-1.2.1-.4.8-.9,1.2-.9,1.1.1,2.3.4,3.3.9.4.1.8.8.7,1.2,0,.3-.6.6-.9.9Z"/>
      </g>
      <g>
        <path class="cls-1" d="m524.34,251.1c-20.5-11.5-36.8-27.5-48.8-47.9s-18-43.5-18-69.2,6-48.8,18-69.2c12-20.4,28.3-36.3,48.8-47.7,20.5-11.4,43.1-17.1,67.6-17.1s47.3,5.7,67.7,17.1,36.6,27.3,48.4,47.7c11.9,20.4,17.8,43.5,17.8,69.2s-5.9,48.8-17.8,69.2c-11.9,20.4-28.1,36.4-48.6,47.9s-43.1,17.3-67.6,17.3-47-5.8-67.5-17.3Zm111.5-68.5c10.8-12.1,16.1-28.3,16.1-48.6s-5.4-36.8-16.1-48.8c-10.8-12-25.4-18-44-18s-33.5,6-44.2,18c-10.6,12-16,28.3-16,48.8s5.3,36.5,16,48.6c10.6,12.1,25.4,18.2,44.2,18.2,18.6,0,33.2-6,44-18.2Z"/>
        <path class="cls-1" d="m758.94,246.7c-19.6-14.5-30.1-35.2-31.6-62.2h77.6c.7,9.4,3.5,16.2,8.2,20.4s10.8,6.3,18.2,6.3c6.7,0,12.2-1.7,16.5-5s6.5-8.1,6.5-14.3c0-7.7-3.6-13.6-10.8-17.8s-18.8-8.9-34.9-14.1c-17.1-5.7-30.9-11.2-41.4-16.5s-19.7-13.1-27.5-23.4-11.7-23.7-11.7-40.3,4.2-31.2,12.6-43.2c8.4-12,20-21.1,34.9-27.3C790.34,3.1,807.24,0,826.04,0c30.4,0,54.8,7.1,72.9,21.3,18.2,14.2,27.9,34.2,29.1,60h-79.1c-.2-8.2-2.7-14.2-7.2-18.2-4.6-4-10.5-5.9-17.6-5.9-5.4,0-9.9,1.6-13.4,4.8-3.5,3.2-5.2,7.9-5.2,14.1,0,5,1.9,9.2,5.8,12.8,3.8,3.6,8.6,6.7,14.3,9.3,5.7,2.6,14.1,5.9,25.2,9.8,16.6,5.7,30.3,11.3,41,16.9,10.8,5.6,20,13.4,27.8,23.4,7.8,10,11.7,22.7,11.7,38s-3.9,29.6-11.7,41.9c-7.8,12.4-19.1,22.2-33.8,29.3-14.7,7.2-32.1,10.8-52.2,10.8-30.2.1-55.2-7.1-74.7-21.6Z"/>
      </g>
    </g>
  </g>
</svg>